<?xml version="1.0" encoding="utf-8"?>
<!-- Generator: Adobe Illustrator 23.0.1, SVG Export Plug-In . SVG Version: 6.00 Build 0)  -->
<svg version="1.1" id="Layer_1" xmlns="http://www.w3.org/2000/svg" xmlns:xlink="http://www.w3.org/1999/xlink" x="0px" y="0px"
	 viewBox="0 0 512 512" style="enable-background:new 0 0 512 512;" xml:space="preserve">
<style type="text/css">
	.st0{fill:#02FFF7;}
</style>
<g>
	<g>
		<path class="st0" d="M503.1,312.1l-48.3-36.8c0.6-5.7,1.1-12.3,1.1-19.3c0-7-0.5-13.7-1.1-19.3l48.4-36.8
			c9-6.9,11.4-19.2,5.7-29.4l-50.3-84.7c-5.4-9.6-17.1-14.5-29.1-10.2l-57,22.3c-10.9-7.7-22.4-14.2-34.2-19.3l-8.7-58.9
			C328.2,8.4,318.2,0,306.4,0H205.6c-11.8,0-21.8,8.4-23.2,19.5l-8.7,59.1c-11.5,5-22.8,11.4-34.2,19.3L82.4,75.6
			c-10.7-4-23.5,0.5-28.9,10L3.2,170.3c-5.9,9.8-3.5,22.5,5.7,29.5l48.3,36.8c-0.8,7.2-1.1,13.4-1.1,19.3s0.4,12.1,1.1,19.3
			L8.9,312.2c-9,6.9-11.4,19.2-5.7,29.4l50.3,84.7c5.4,9.5,17,14.5,29.1,10.2l57-22.3c10.9,7.7,22.4,14.1,34.2,19.3l8.7,58.9
			c1.4,11.2,11.4,19.7,23.2,19.7h100.8c11.8,0,21.8-8.4,23.2-19.5l8.7-59.1c11.5-5.1,22.7-11.4,34.2-19.4l57.2,22.4
			c2.8,1,5.6,1.6,8.6,1.6c8.5,0,16.3-4.5,20.3-11.6l50.5-85.1C514.6,331.3,512.2,319.1,503.1,312.1z M256,341.3
			c-48.3,0-87.6-38.3-87.6-85.3s39.3-85.3,87.6-85.3s87.6,38.3,87.6,85.3S304.3,341.3,256,341.3z"/>
	</g>
</g>
</svg>
